<?xml version="1.0" standalone="no"?>
<!DOCTYPE svg PUBLIC "-//W3C//DTD SVG 20010904//EN"
 "http://www.w3.org/TR/2001/REC-SVG-20010904/DTD/svg10.dtd">
<svg version="1.0" xmlns="http://www.w3.org/2000/svg"
 width="422.000000pt" height="415.000000pt" viewBox="0 0 422.000000 415.000000"
 preserveAspectRatio="xMidYMid meet">

<g transform="translate(0.000000,415.000000) scale(0.100000,-0.100000)"
stroke="none">
<path d="M1905 4129 c-733 -80 -1353 -514 -1675 -1171 -253 -516 -286 -1098
-95 -1647 103 -296 267 -555 499 -787 204 -204 428 -354 691 -461 147 -61 188
-64 234 -19 25 25 26 32 29 159 2 72 1 170 -3 215 l-7 84 -61 -9 c-103 -14
-265 -8 -332 11 -135 40 -246 127 -295 233 -87 189 -135 257 -231 324 -34 24
-71 56 -83 72 -19 26 -19 28 -3 45 14 13 34 17 85 17 122 -1 234 -74 332 -221
106 -156 209 -217 365 -218 95 -1 232 32 239 57 2 7 12 43 21 81 11 43 34 93
61 132 23 35 39 64 34 64 -4 0 -59 9 -122 19 -500 86 -754 356 -809 858 -30
275 22 494 163 681 l39 53 -17 72 c-32 137 -17 334 35 471 l12 29 72 -6 c115
-9 243 -60 423 -168 l80 -48 120 24 c270 55 540 55 810 0 l121 -25 106 64
c171 102 334 161 431 154 l41 -3 22 -67 c47 -141 54 -308 18 -442 -16 -58 -16
-59 8 -85 40 -42 103 -145 130 -214 78 -195 76 -519 -5 -764 -92 -280 -286
-456 -605 -548 -72 -21 -242 -55 -276 -55 -5 0 3 -14 18 -31 37 -45 71 -115
91 -190 15 -55 17 -116 18 -431 l1 -367 26 -26 c46 -46 87 -43 234 18 555 227
995 689 1190 1248 87 250 119 444 119 719 0 261 -30 447 -110 685 -217 650
-771 1171 -1437 1350 -220 60 -540 87 -752 64z"/>
</g>
</svg>
