<?xml version="1.0" standalone="no"?>
<!DOCTYPE svg PUBLIC "-//W3C//DTD SVG 20010904//EN"
 "http://www.w3.org/TR/2001/REC-SVG-20010904/DTD/svg10.dtd">
<svg version="1.0" xmlns="http://www.w3.org/2000/svg"
 width="512.000000pt" height="356.000000pt" viewBox="0 0 512.000000 356.000000"
 preserveAspectRatio="xMidYMid meet">

<g transform="translate(0.000000,356.000000) scale(0.100000,-0.100000)"
stroke="none">
<path d="M1659 3550 c-121 -15 -237 -100 -288 -210 -23 -48 -26 -71 -29 -177
l-4 -122 -581 -3 -582 -3 -48 -28 c-54 -32 -102 -92 -117 -147 -7 -24 -9 -431
-8 -1151 l3 -1113 414 840 c228 461 429 862 446 889 72 113 215 220 362 272
l78 28 1368 3 1367 2 0 111 c0 158 -34 223 -145 275 l-50 24 -566 0 -566 0 -5
113 c-4 82 -11 127 -27 169 -47 121 -167 210 -307 229 -81 10 -634 10 -715 -1z
m738 -260 c49 -29 63 -66 63 -165 l0 -85 -440 0 -440 0 0 69 c0 38 3 83 6 100
8 37 54 88 87 94 12 2 173 5 357 6 316 1 337 0 367 -19z"/>
<path d="M1305 2364 c-74 -22 -183 -100 -222 -159 -18 -28 -250 -489 -515
-1025 -517 -1047 -511 -1035 -473 -1106 10 -18 34 -41 54 -51 34 -17 124 -18
1811 -21 1170 -2 1802 1 1853 7 107 15 178 50 257 130 l65 66 488 993 c288
584 491 1008 494 1031 8 57 -20 109 -71 132 -39 18 -111 19 -1866 18 -1585 -1
-1832 -3 -1875 -15z"/>
</g>
</svg>
